                                                                        S      1
,,,8HCatheter,22HAutoCAD 2021 - English,62HAutodesk Translation FrameworG      1
k DWG producer (atf_dwg_producer),32,38,7,99,15,,1.,1,4HINCH,1,0.08,15H2G      2
0240214.183231,0.000393700787401575,10000.,,7Hunknown,11,0,15H20240214.1G      3
24718;                                                                  G      4
     186       1                       0                        00000000D      1
     186            -111       1       0                               0D      2
     186       2                       0                        00000000D      3
     186            -111       1       0                               0D      4
     514       3                                                00010000D      5
     514                       1       1                               0D      6
     514       4                                                00010000D      7
     514                       1       1                               0D      8
     510       5                                                00010000D      9
     510            -111       1       1                               0D     10
     510       6                                                00010000D     11
     510            -111       1       1                               0D     12
     510       7                                                00010000D     13
     510            -111       1       1                               0D     14
     510       8                                                00010000D     15
     510            -111       1       1                               0D     16
     510       9                                                00010000D     17
     510            -111       1       1                               0D     18
     510      10                                                00010000D     19
     510            -111       1       1                               0D     20
     510      11                                                00010000D     21
     510            -111       1       1                               0D     22
     510      12                                                00010000D     23
     510            -111       1       1                               0D     24
     508      13                                                00010000D     25
     508                       1       1                               0D     26
     508      14                                                00010000D     27
     508                       1       1                               0D     28
     508      15                                                00010000D     29
     508                       1       1                               0D     30
     508      16                                                00010000D     31
     508                       1       1                               0D     32
     508      17                                                00010000D     33
     508                       1       1                               0D     34
     508      18                                                00010000D     35
     508                       1       1                               0D     36
     508      19                                                00010000D     37
     508                       1       1                               0D     38
     508      20                                                00010000D     39
     508                       1       1                               0D     40
     508      21                                                00010000D     41
     508                       1       1                               0D     42
     508      22                                                00010000D     43
     508                       1       1                               0D     44
     508      23                                                00010000D     45
     508                       1       1                               0D     46
     508      24                                                00010000D     47
     508                       1       1                               0D     48
     126      25                                                00010000D     49
     126       0               7       0                               0D     50
     126      32                                                00010000D     51
     126       0              12       0                               0D     52
     126      44                                                00010000D     53
     126       0              13       0                               0D     54
     126      57                                                00010000D     55
     126       0               7       0                               0D     56
     126      64                                                00010000D     57
     126       0              15       0                               0D     58
     126      79                                                00010000D     59
     126       0               4       0                               0D     60
     126      83                                                00010000D     61
     126       0               4       0                               0D     62
     126      87                                                00010000D     63
     126       0              15       0                               0D     64
     126     102                                                00010000D     65
     126       0              15       0                               0D     66
     126     117                                                00010000D     67
     126       0               4       0                               0D     68
     126     121                                                00010000D     69
     126       0              15       0                               0D     70
     126     136                                                00010000D     71
     126       0              15       0                               0D     72
     126     151                                                00010000D     73
     126       0               4       0                               0D     74
     126     155                                                00010000D     75
     126       0              15       0                               0D     76
     128     170                                                00010000D     77
     128       0    -111       9       0                               0D     78
     128     179                                                00010000D     79
     128       0    -111      26       0                               0D     80
     128     205                                                00010000D     81
     128       0    -111      26       0                               0D     82
     128     231                                                00010000D     83
     128       0    -111       9       0                               0D     84
     128     240                                                00010000D     85
     128       0    -111      26       0                               0D     86
     128     266                                                00010000D     87
     128       0    -111      26       0                               0D     88
     128     292                                                00010000D     89
     128       0    -111       9       0                               0D     90
     128     301                                                00010000D     91
     128       0    -111       9       0                               0D     92
     502     310                                                00010000D     93
     502                       6       1                               0D     94
     502     316                                                00010000D     95
     502                       4       1                               0D     96
     504     320                                                00010001D     97
     504                       2       1                               0D     98
     504     322                                                00010001D     99
     504                       2       1                               0D    100
     116     324                       0                        00010000D    101
     116       0    -111       1       0                               0D    102
     406     325                                                00000000D    103
     406                       1      15                               0D    104
     406     326                                                00000000D    105
     406                       1      15                               0D    106
     406     327                                                00000000D    107
     406                       1      15                               0D    108
     406     328                       0                        00000000D    109
     406            -111       1       3                               0D    110
     314     329                                                00000200D    111
     314                       1       0                               0D    112
186,5,1,0,0,1,105;                                                     1P      1
186,7,1,0,0,1,107;                                                     3P      2
514,4,9,1,11,1,13,1,15,1;                                              5P      3
514,4,17,1,19,1,21,1,23,1;                                             7P      4
510,77,2,1,25,27;                                                      9P      5
510,79,1,1,29;                                                        11P      6
510,81,1,1,31;                                                        13P      7
510,83,2,1,33,35;                                                     15P      8
510,85,1,1,37;                                                        17P      9
510,87,1,1,39;                                                        19P     10
510,89,2,1,41,43;                                                     21P     11
510,91,2,1,45,47;                                                     23P     12
508,2,0,97,1,0,0,0,97,2,0,0;                                          25P     13
508,2,0,97,3,0,0,0,97,4,0,0;                                          27P     14
508,5,0,97,5,0,0,0,97,6,1,0,0,97,4,1,0,0,97,3,1,0,0,97,6,0,0;         29P     15
508,5,0,97,1,1,0,0,97,7,1,0,0,97,8,0,0,0,97,7,0,0,0,97,2,1,0;         31P     16
508,1,0,97,8,1,0;                                                     33P     17
508,1,0,97,5,1,0;                                                     35P     18
508,4,0,99,1,0,0,0,99,2,1,0,0,99,3,0,0,0,99,2,0,0;                    37P     19
508,4,0,99,4,0,0,0,99,5,1,0,0,99,6,1,0,0,99,5,0,0;                    39P     20
508,1,0,99,4,1,0;                                                     41P     21
508,1,0,99,1,1,0;                                                     43P     22
508,1,0,99,6,0,0;                                                     45P     23
508,1,0,99,3,1,0;                                                     47P     24
126,2,2,0,0,0,0,-3.14159265358979,-3.14159265358979,                  49P     25
-3.14159265358979,-1.5707963267949,-1.5707963267949,                  49P     26
-1.5707963267949,1.,0.707106781188469,1.,12.2882902132843,            49P     27
-0.151732999999995,21.4796391398043,12.2882902132843,                 49P     28
-0.151732999999995,21.4837641398043,12.2924152132843,                 49P     29
-0.147607999999995,21.4837641398043,-3.14159265358979,                49P     30
-1.5707963267949,0.,0.,0.;                                            49P     31
126,6,2,0,0,0,0,-1.5707963267949,-1.5707963267949,                    51P     32
-1.5707963267949,0.,0.,1.5707963267949,1.5707963267949,               51P     33
3.14159265358979,3.14159265358979,3.14159265358979,1.,                51P     34
0.707106781188469,1.,0.707106781188469,1.,0.707106781188469,1.,       51P     35
12.2924152132843,-0.147607999999995,21.4837641398043,                 51P     36
12.2965402132843,-0.143482999999995,21.4837641398043,                 51P     37
12.2965402132843,-0.143482999999995,21.4796391398043,                 51P     38
12.2965402132843,-0.143482999999995,21.4755141398043,                 51P     39
12.2924152132843,-0.147607999999995,21.4755141398043,                 51P     40
12.2882902132843,-0.151732999999995,21.4755141398043,                 51P     41
12.2882902132843,-0.151732999999995,21.4796391398043,                 51P     42
-1.5707963267949,3.14159265358979,0.,0.,0.;                           51P     43
126,6,2,0,0,0,0,-3.14159265358979,-3.14159265358979,                  53P     44
-3.14159265358979,-1.57079632679467,-1.57079632679467,                53P     45
4.57263856408948D-13,4.57263856408948D-13,1.57079632679558,           53P     46
1.57079632679558,1.57079632679558,1.,0.707106781188581,1.,            53P     47
0.707106781189223,1.,0.707106781188883,1.,12.2902902132843,           53P     48
-0.149732999999995,21.4796391398043,12.2902902132843,                 53P     49
-0.149732999999995,21.4775141398043,12.2924152132843,                 53P     50
-0.147607999999995,21.4775141398043,12.2945402132843,                 53P     51
-0.145482999999994,21.4775141398043,12.2945402132843,                 53P     52
-0.145482999999995,21.4796391398043,12.2945402132843,                 53P     53
-0.145482999999996,21.4817641398043,12.2924152132843,                 53P     54
-0.147607999999997,21.4817641398043,-3.14159265358979,                53P     55
1.57079632679558,0.,0.,0.;                                            53P     56
126,2,2,0,0,0,0,1.57079632679558,1.57079632679558,                    55P     57
1.57079632679558,3.14159265358979,3.14159265358979,                   55P     58
3.14159265358979,1.,0.707106781189501,1.,12.2924152132843,            55P     59
-0.147607999999997,21.4817641398043,12.2902902132843,                 55P     60
-0.149732999999995,21.4817641398043,12.2902902132843,                 55P     61
-0.149732999999995,21.4796391398043,1.57079632679558,                 55P     62
3.14159265358979,0.,0.,0.;                                            55P     63
126,8,2,0,1,0,0,-3.14159265358979,-3.14159265358979,                  57P     64
-3.14159265358979,-1.5707963267949,-1.5707963267949,0.,0.,            57P     65
1.5707963267949,1.5707963267949,3.14159265358979,                     57P     66
3.14159265358979,3.14159265358979,1.,0.707106781188372,1.,            57P     67
0.707106781188372,1.,0.707106781188372,1.,0.707106781188372,1.,       57P     68
12.2924152132843,0.226220000000005,21.4817641398043,                  57P     69
12.2902902132843,0.226220000000005,21.4817641398043,                  57P     70
12.2902902132843,0.226220000000005,21.4796391398043,                  57P     71
12.2902902132843,0.226220000000005,21.4775141398043,                  57P     72
12.2924152132843,0.226220000000005,21.4775141398043,                  57P     73
12.2945402132843,0.226220000000005,21.4775141398043,                  57P     74
12.2945402132843,0.226220000000005,21.4796391398043,                  57P     75
12.2945402132843,0.226220000000005,21.4817641398043,                  57P     76
12.2924152132843,0.226220000000005,21.4817641398043,                  57P     77
-3.14159265358979,3.14159265358979,0.,0.,0.;                          57P     78
126,1,1,0,0,1,0,0.,0.,175.91905882353,175.91905882353,1.,1.,          59P     79
12.2924152132843,0.226220000000005,21.4817641398043,                  59P     80
12.2924152132843,-0.147607999999996,21.4817641398043,0.,              59P     81
175.91905882353,0.,0.,0.;                                             59P     82
126,1,1,0,0,1,0,-90.6249696969697,-90.6249696969697,0.,0.,1.,1.,      61P     83
12.2924152132843,-0.147607999999995,21.4837641398043,                 61P     84
12.2924152132843,0.226220000000005,21.4837641398043,                  61P     85
-90.6249696969697,0.,0.,0.,0.;                                        61P     86
126,8,2,0,1,0,0,-3.14159265358979,-3.14159265358979,                  63P     87
-3.14159265358979,-1.5707963267949,-1.5707963267949,0.,0.,            63P     88
1.5707963267949,1.5707963267949,3.14159265358979,                     63P     89
3.14159265358979,3.14159265358979,1.,0.707106781188406,1.,            63P     90
0.707106781188406,1.,0.707106781188406,1.,0.707106781188406,1.,       63P     91
12.2924152132843,0.226220000000005,21.4837641398043,                  63P     92
12.2965402132843,0.226220000000005,21.4837641398043,                  63P     93
12.2965402132843,0.226220000000005,21.4796391398043,                  63P     94
12.2965402132843,0.226220000000005,21.4755141398043,                  63P     95
12.2924152132843,0.226220000000005,21.4755141398043,                  63P     96
12.2882902132843,0.226220000000005,21.4755141398043,                  63P     97
12.2882902132843,0.226220000000005,21.4796391398043,                  63P     98
12.2882902132843,0.226220000000005,21.4837641398043,                  63P     99
12.2924152132843,0.226220000000005,21.4837641398043,                  63P    100
-3.14159265358979,3.14159265358979,0.,0.,0.;                          63P    101
126,8,2,0,1,0,0,-3.14159265358979,-3.14159265358979,                  65P    102
-3.14159265358979,-1.5707963267949,-1.5707963267949,0.,0.,            65P    103
1.5707963267949,1.5707963267949,3.14159265358979,                     65P    104
3.14159265358979,3.14159265358979,1.,0.707106781187046,1.,            65P    105
0.707106781187046,1.,0.707106781187046,1.,0.707106781187046,1.,       65P    106
12.2924152132843,0.226220000000005,21.4847641398043,                  65P    107
12.2872902132843,0.226220000000005,21.4847641398043,                  65P    108
12.2872902132843,0.226220000000005,21.4796391398043,                  65P    109
12.2872902132843,0.226220000000005,21.4745141398043,                  65P    110
12.2924152132843,0.226220000000005,21.4745141398043,                  65P    111
12.2975402132843,0.226220000000005,21.4745141398043,                  65P    112
12.2975402132843,0.226220000000005,21.4796391398043,                  65P    113
12.2975402132843,0.226220000000005,21.4847641398043,                  65P    114
12.2924152132843,0.226220000000005,21.4847641398043,                  65P    115
-3.14159265358979,3.14159265358979,0.,0.,0.;                          65P    116
126,1,1,0,0,1,0,0.,0.,46.0917073170732,46.0917073170732,1.,1.,        67P    117
12.2924152132843,0.226220000000005,21.4847641398043,                  67P    118
12.2924152132843,-0.00999999999999522,21.4847641398043,0.,            67P    119
46.0917073170732,0.,0.,0.;                                            67P    120
126,8,2,0,1,0,0,-3.14159265358979,-3.14159265358979,                  69P    121
-3.14159265358979,-1.5707963267949,-1.5707963267949,0.,0.,            69P    122
1.5707963267949,1.5707963267949,3.14159265358979,                     69P    123
3.14159265358979,3.14159265358979,1.,0.707106781187046,1.,            69P    124
0.707106781187046,1.,0.707106781187046,1.,0.707106781187046,1.,       69P    125
12.2924152132843,-0.00999999999999522,21.4847641398043,               69P    126
12.2975402132843,-0.00999999999999522,21.4847641398043,               69P    127
12.2975402132843,-0.00999999999999523,21.4796391398043,               69P    128
12.2975402132843,-0.00999999999999523,21.4745141398043,               69P    129
12.2924152132843,-0.00999999999999523,21.4745141398043,               69P    130
12.2872902132843,-0.00999999999999523,21.4745141398043,               69P    131
12.2872902132843,-0.00999999999999523,21.4796391398043,               69P    132
12.2872902132843,-0.00999999999999522,21.4847641398043,               69P    133
12.2924152132843,-0.00999999999999522,21.4847641398043,               69P    134
-3.14159265358979,3.14159265358979,0.,0.,0.;                          69P    135
126,8,2,0,1,0,0,-3.14159265358979,-3.14159265358979,                  71P    136
-3.14159265358979,-1.5707963267949,-1.5707963267949,0.,0.,            71P    137
1.5707963267949,1.5707963267949,3.14159265358979,                     71P    138
3.14159265358979,3.14159265358979,1.,0.70710678118669,1.,             71P    139
0.70710678118669,1.,0.70710678118669,1.,0.70710678118669,1.,          71P    140
12.2924152132843,0.226220000000005,21.4887641398043,                  71P    141
12.3015402132843,0.226220000000005,21.4887641398043,                  71P    142
12.3015402132843,0.226220000000005,21.4796391398043,                  71P    143
12.3015402132843,0.226220000000005,21.4705141398043,                  71P    144
12.2924152132843,0.226220000000005,21.4705141398043,                  71P    145
12.2832902132843,0.226220000000005,21.4705141398043,                  71P    146
12.2832902132843,0.226220000000005,21.4796391398043,                  71P    147
12.2832902132843,0.226220000000005,21.4887641398043,                  71P    148
12.2924152132843,0.226220000000005,21.4887641398043,                  71P    149
-3.14159265358979,3.14159265358979,0.,0.,0.;                          71P    150
126,1,1,0,0,1,0,-25.8871232876712,-25.8871232876712,0.,0.,1.,1.,      73P    151
12.2924152132843,0.226220000000005,21.4887641398043,                  73P    152
12.2924152132843,-0.00999999999999522,21.4887641398043,               73P    153
-25.8871232876712,0.,0.,0.,0.;                                        73P    154
126,8,2,0,1,0,0,-3.14159265358979,-3.14159265358979,                  75P    155
-3.14159265358979,-1.5707963267949,-1.5707963267949,0.,0.,            75P    156
1.5707963267949,1.5707963267949,3.14159265358979,                     75P    157
3.14159265358979,3.14159265358979,1.,0.70710678118669,1.,             75P    158
0.70710678118669,1.,0.70710678118669,1.,0.70710678118669,1.,          75P    159
12.2924152132843,-0.00999999999999522,21.4887641398043,               75P    160
12.3015402132843,-0.00999999999999522,21.4887641398043,               75P    161
12.3015402132843,-0.00999999999999523,21.4796391398043,               75P    162
12.3015402132843,-0.00999999999999523,21.4705141398043,               75P    163
12.2924152132843,-0.00999999999999523,21.4705141398043,               75P    164
12.2832902132843,-0.00999999999999523,21.4705141398043,               75P    165
12.2832902132843,-0.00999999999999523,21.4796391398043,               75P    166
12.2832902132843,-0.00999999999999522,21.4887641398043,               75P    167
12.2924152132843,-0.00999999999999522,21.4887641398043,               75P    168
-3.14159265358979,3.14159265358979,0.,0.,0.;                          75P    169
128,1,1,1,1,0,0,1,0,0,-0.00100000000000243,-0.00100000000000243,      77P    170
0.0126672618895777,0.0126672618895777,5.00000000009491D-5,            77P    171
5.00000000009491D-5,0.00994999999999706,0.00994999999999706,1.,       77P    172
1.,1.,1.,12.2875831065031,-0.152440106781183,21.4746891398043,        77P    173
12.2972473200655,-0.142775893218809,21.4746891398043,                 77P    174
12.2875831065031,-0.152440106781183,21.4845891398043,                 77P    175
12.2972473200655,-0.142775893218809,21.4845891398043,                 77P    176
-0.00100000000000243,0.0126672618895777,5.00000000009491D-5,          77P    177
0.00994999999999706;                                                  77P    178
128,1,8,1,2,0,1,0,0,1,0.,0.,176.919058823529,176.919058823529,        79P    179
-3.14159265358979,-3.14159265358979,-3.14159265358979,                79P    180
-1.5707963267949,-1.5707963267949,0.,0.,1.5707963267949,              79P    181
1.5707963267949,3.14159265358979,3.14159265358979,                    79P    182
3.14159265358979,1.,1.,0.707106781186548,0.707106781186548,1.,        79P    183
1.,0.707106781186548,0.707106781186548,1.,1.,0.707106781186548,       79P    184
0.707106781186548,1.,1.,0.707106781186548,0.707106781186548,1.,       79P    185
1.,12.2924152132843,0.226220000000005,21.4817641398043,               79P    186
12.2924152132843,-0.149732999999995,21.4817641398043,                 79P    187
12.2902902132843,0.226220000000005,21.4817641398043,                  79P    188
12.2902902132843,-0.149732999999995,21.4817641398043,                 79P    189
12.2902902132843,0.226220000000005,21.4796391398043,                  79P    190
12.2902902132843,-0.149732999999995,21.4796391398043,                 79P    191
12.2902902132843,0.226220000000005,21.4775141398043,                  79P    192
12.2902902132843,-0.149732999999995,21.4775141398043,                 79P    193
12.2924152132843,0.226220000000005,21.4775141398043,                  79P    194
12.2924152132843,-0.149732999999995,21.4775141398043,                 79P    195
12.2945402132843,0.226220000000005,21.4775141398043,                  79P    196
12.2945402132843,-0.149732999999995,21.4775141398043,                 79P    197
12.2945402132843,0.226220000000005,21.4796391398043,                  79P    198
12.2945402132843,-0.149732999999995,21.4796391398043,                 79P    199
12.2945402132843,0.226220000000005,21.4817641398043,                  79P    200
12.2945402132843,-0.149732999999995,21.4817641398043,                 79P    201
12.2924152132843,0.226220000000005,21.4817641398043,                  79P    202
12.2924152132843,-0.149732999999995,21.4817641398043,0.,              79P    203
176.919058823529,-3.14159265358979,3.14159265358979;                  79P    204
128,1,8,1,2,0,1,0,0,1,0.,0.,91.6249696969697,91.6249696969697,        81P    205
-3.14159265358979,-3.14159265358979,-3.14159265358979,                81P    206
-1.5707963267949,-1.5707963267949,0.,0.,1.5707963267949,              81P    207
1.5707963267949,3.14159265358979,3.14159265358979,                    81P    208
3.14159265358979,1.,1.,0.707106781186548,0.707106781186548,1.,        81P    209
1.,0.707106781186548,0.707106781186548,1.,1.,0.707106781186548,       81P    210
0.707106781186548,1.,1.,0.707106781186548,0.707106781186548,1.,       81P    211
1.,12.2924152132843,-0.151732999999995,21.4837641398043,              81P    212
12.2924152132843,0.226220000000005,21.4837641398043,                  81P    213
12.2882902132843,-0.151732999999995,21.4837641398043,                 81P    214
12.2882902132843,0.226220000000005,21.4837641398043,                  81P    215
12.2882902132843,-0.151732999999995,21.4796391398043,                 81P    216
12.2882902132843,0.226220000000005,21.4796391398043,                  81P    217
12.2882902132843,-0.151732999999995,21.4755141398043,                 81P    218
12.2882902132843,0.226220000000005,21.4755141398043,                  81P    219
12.2924152132843,-0.151732999999995,21.4755141398043,                 81P    220
12.2924152132843,0.226220000000005,21.4755141398043,                  81P    221
12.2965402132843,-0.151732999999995,21.4755141398043,                 81P    222
12.2965402132843,0.226220000000005,21.4755141398043,                  81P    223
12.2965402132843,-0.151732999999995,21.4796391398043,                 81P    224
12.2965402132843,0.226220000000005,21.4796391398043,                  81P    225
12.2965402132843,-0.151732999999995,21.4837641398043,                 81P    226
12.2965402132843,0.226220000000005,21.4837641398043,                  81P    227
12.2924152132843,-0.151732999999995,21.4837641398043,                 81P    228
12.2924152132843,0.226220000000005,21.4837641398043,0.,               81P    229
91.6249696969697,-3.14159265358979,3.14159265358979;                  81P    230
128,1,1,1,1,0,0,1,0,0,-0.0049499999999945,-0.0049499999999945,        83P    231
0.00495000000000161,0.00495000000000161,-0.00495000000000019,         83P    232
-0.00495000000000019,0.00495000000000019,0.00495000000000019,1.,      83P    233
1.,1.,1.,12.2874652132843,0.226220000000005,21.4746891398043,         83P    234
12.2874652132843,0.226220000000005,21.4845891398043,                  83P    235
12.2973652132843,0.226220000000005,21.4746891398043,                  83P    236
12.2973652132843,0.226220000000005,21.4845891398043,                  83P    237
-0.0049499999999945,0.00495000000000161,-0.00495000000000019,         83P    238
0.00495000000000019;                                                  83P    239
128,1,8,1,2,0,1,0,0,1,0.,0.,46.0917073170732,46.0917073170732,        85P    240
-3.14159265358979,-3.14159265358979,-3.14159265358979,                85P    241
-1.5707963267949,-1.5707963267949,0.,0.,1.5707963267949,              85P    242
1.5707963267949,3.14159265358979,3.14159265358979,                    85P    243
3.14159265358979,1.,1.,0.707106781186548,0.707106781186548,1.,        85P    244
1.,0.707106781186548,0.707106781186548,1.,1.,0.707106781186548,       85P    245
0.707106781186548,1.,1.,0.707106781186548,0.707106781186548,1.,       85P    246
1.,12.2924152132843,0.226220000000005,21.4847641398043,               85P    247
12.2924152132843,-0.00999999999999522,21.4847641398043,               85P    248
12.2872902132843,0.226220000000005,21.4847641398043,                  85P    249
12.2872902132843,-0.00999999999999522,21.4847641398043,               85P    250
12.2872902132843,0.226220000000005,21.4796391398043,                  85P    251
12.2872902132843,-0.00999999999999523,21.4796391398043,               85P    252
12.2872902132843,0.226220000000005,21.4745141398043,                  85P    253
12.2872902132843,-0.00999999999999523,21.4745141398043,               85P    254
12.2924152132843,0.226220000000005,21.4745141398043,                  85P    255
12.2924152132843,-0.00999999999999523,21.4745141398043,               85P    256
12.2975402132843,0.226220000000005,21.4745141398043,                  85P    257
12.2975402132843,-0.00999999999999523,21.4745141398043,               85P    258
12.2975402132843,0.226220000000005,21.4796391398043,                  85P    259
12.2975402132843,-0.00999999999999523,21.4796391398043,               85P    260
12.2975402132843,0.226220000000005,21.4847641398043,                  85P    261
12.2975402132843,-0.00999999999999522,21.4847641398043,               85P    262
12.2924152132843,0.226220000000005,21.4847641398043,                  85P    263
12.2924152132843,-0.00999999999999522,21.4847641398043,0.,            85P    264
46.0917073170732,-3.14159265358979,3.14159265358979;                  85P    265
128,1,8,1,2,0,1,0,0,1,0.,0.,25.8871232876712,25.8871232876712,        87P    266
-3.14159265358979,-3.14159265358979,-3.14159265358979,                87P    267
-1.5707963267949,-1.5707963267949,0.,0.,1.5707963267949,              87P    268
1.5707963267949,3.14159265358979,3.14159265358979,                    87P    269
3.14159265358979,1.,1.,0.707106781186548,0.707106781186548,1.,        87P    270
1.,0.707106781186548,0.707106781186548,1.,1.,0.707106781186548,       87P    271
0.707106781186548,1.,1.,0.707106781186548,0.707106781186548,1.,       87P    272
1.,12.2924152132843,0.226220000000005,21.4887641398043,               87P    273
12.2924152132843,-0.00999999999999522,21.4887641398043,               87P    274
12.3015402132843,0.226220000000005,21.4887641398043,                  87P    275
12.3015402132843,-0.00999999999999522,21.4887641398043,               87P    276
12.3015402132843,0.226220000000005,21.4796391398043,                  87P    277
12.3015402132843,-0.00999999999999523,21.4796391398043,               87P    278
12.3015402132843,0.226220000000005,21.4705141398043,                  87P    279
12.3015402132843,-0.00999999999999523,21.4705141398043,               87P    280
12.2924152132843,0.226220000000005,21.4705141398043,                  87P    281
12.2924152132843,-0.00999999999999523,21.4705141398043,               87P    282
12.2832902132843,0.226220000000005,21.4705141398043,                  87P    283
12.2832902132843,-0.00999999999999523,21.4705141398043,               87P    284
12.2832902132843,0.226220000000005,21.4796391398043,                  87P    285
12.2832902132843,-0.00999999999999523,21.4796391398043,               87P    286
12.2832902132843,0.226220000000005,21.4887641398043,                  87P    287
12.2832902132843,-0.00999999999999522,21.4887641398043,               87P    288
12.2924152132843,0.226220000000005,21.4887641398043,                  87P    289
12.2924152132843,-0.00999999999999522,21.4887641398043,0.,            87P    290
25.8871232876712,-3.14159265358979,3.14159265358979;                  87P    291
128,1,1,1,1,0,0,1,0,0,-0.0101250000000009,-0.0101250000000009,        89P    292
0.0101250000000009,0.0101250000000009,-0.0101249999999992,            89P    293
-0.0101249999999992,0.0101249999999992,0.0101249999999992,1.,1.,      89P    294
1.,1.,12.2822902132843,0.226220000000005,21.4695141398043,            89P    295
12.2822902132843,0.226220000000005,21.4897641398043,                  89P    296
12.3025402132843,0.226220000000005,21.4695141398043,                  89P    297
12.3025402132843,0.226220000000005,21.4897641398043,                  89P    298
-0.0101250000000009,0.0101250000000009,-0.0101249999999992,           89P    299
0.0101249999999992;                                                   89P    300
128,1,1,1,1,0,0,1,0,0,-0.0101250000000009,-0.0101250000000009,        91P    301
0.0101250000000009,0.0101250000000009,-0.0101249999999992,            91P    302
-0.0101249999999992,0.0101249999999992,0.0101249999999992,1.,1.,      91P    303
1.,1.,12.2822902132843,-0.00999999999999522,21.4897641398043,         91P    304
12.2822902132843,-0.00999999999999523,21.4695141398043,               91P    305
12.3025402132843,-0.00999999999999522,21.4897641398043,               91P    306
12.3025402132843,-0.00999999999999523,21.4695141398043,               91P    307
-0.0101250000000009,0.0101250000000009,-0.0101249999999992,           91P    308
0.0101249999999992;                                                   91P    309
502,6,12.2882902132843,-0.151732999999995,21.4796391398043,           93P    310
12.2924152132843,-0.147607999999995,21.4837641398043,                 93P    311
12.2902902132843,-0.149732999999995,21.4796391398043,                 93P    312
12.2924152132843,-0.147607999999996,21.4817641398043,                 93P    313
12.2924152132843,0.226220000000005,21.4817641398043,                  93P    314
12.2924152132843,0.226220000000005,21.4837641398043;                  93P    315
502,4,12.2924152132843,0.226220000000005,21.4847641398043,            95P    316
12.2924152132843,-0.00999999999999522,21.4847641398043,               95P    317
12.2924152132843,0.226220000000005,21.4887641398043,                  95P    318
12.2924152132843,-0.00999999999999522,21.4887641398043;               95P    319
504,8,49,93,1,93,2,51,93,2,93,1,53,93,3,93,4,55,93,4,93,3,57,93,      97P    320
5,93,5,59,93,5,93,4,61,93,2,93,6,63,93,6,93,6;                        97P    321
504,6,65,95,1,95,1,67,95,1,95,2,69,95,2,95,2,71,95,3,95,3,73,95,      99P    322
3,95,4,75,95,4,95,4;                                                  99P    323
116,0.,0.,0.,0,0,1,103;                                              101P    324
406,1,2H72;                                                          103P    325
406,1,2H7E;                                                          105P    326
406,1,2H81;                                                          107P    327
406,2,0,1H0;                                                         109P    328
314,100.,100.,100.,;                                                 111P    329
S      1G      4D    112P    329                                        T      1
